<?xml version="1.0" encoding="utf-8"?>
<svg width="2730.667" height="2730.667" viewBox="0 0 2730.667 2730.667" fill="none" xmlns="http://www.w3.org/2000/svg">
  <g>
    <g transform="matrix(1 0 0 -1 396.791 1748.683)">
      <path d="M243.333 240.533C198 232.533 156.267 214.4 119.867 187.067C74.2666 152.8 38.2667 108 16.5333 58.6667C11.0667 46.1334 0 13.8667 0 10.2667C0 8.39999 1.33333 8.53333 14.5333 11.4667C16.2667 11.7333 20.1333 12.2667 23.3333 12.5333C26.5333 12.8 29.6 13.3333 30.2667 13.7333C31.4667 14.5333 38 14 48 12.5333C50.5333 12.1333 54.4 11.8667 56.4 11.8667C58.5333 12 60.8 11.6 61.6 11.2C62.4 10.6667 65.8667 10.1333 69.4667 10C73.0667 9.73334 76.8 8.93332 77.8667 8.13333C78.9333 7.20001 81.3333 6.39999 83.0667 6.26666C84.9333 6.13333 88 4.66666 89.8667 3.06668C89.8667 3.06668 93.3333 0 93.3333 0C93.3333 0 93.8667 3.06668 93.8667 3.06668C103.867 52.9333 114.8 84.1333 134 118C149.467 145.467 162.667 162.667 185.333 185.333C205.867 206 221.067 218.267 242.8 232.133C249.2 236 255.467 240 256.8 240.933C259.2 242.4 259.2 242.533 256.667 242.533C255.2 242.4 249.2 241.6 243.333 240.533C243.333 240.533 243.333 240.533 243.333 240.533Z" fill="#FFFFFF" transform="translate(157.876 494.016)" />
      <path d="M1.19415 1.72748C-0.539185 -0.405884 -0.405853 -0.539185 1.72748 1.19415C3.86081 2.92749 4.5275 3.99414 3.46082 3.99414C3.19415 3.99414 2.12747 2.92749 1.19415 1.72748C1.19415 1.72748 1.19415 1.72748 1.19415 1.72748Z" fill="#FFFFFF" transform="translate(259.215 672.689)" />
      <path d="M1.19414 1.72748C-0.5392 -0.405884 -0.405853 -0.539185 1.72748 1.19415C2.92746 2.12744 3.99414 3.19415 3.99414 3.46082C3.99414 4.52747 2.92746 3.86078 1.19414 1.72748C1.19414 1.72748 1.19414 1.72748 1.19414 1.72748Z" fill="#FFFFFF" transform="translate(253.882 668.689)" />
      <path d="M0 130.667L0 0C0 0 62.4 0.666656 62.4 0.666656C96.6667 1.06668 139.867 1.33334 158.4 1.33334C158.4 1.33334 192 1.46667 192 1.46667L192 27.4667L192 53.4667L125.733 53.7333L59.3333 54.1333L59.3333 157.733L59.3333 261.467L29.7333 261.467L0 261.467L0 130.667L0 130.667Z" fill="#FFFFFF" transform="translate(820.543 361.883)" />
      <path d="M0 203.14C0.133301 127.94 1.46667 96.6069 5.33337 80.7402C12.6666 50.6069 32.4 25.8069 59.4667 12.7402C110.4 -11.7931 178.667 0.206909 209.867 39.2736C222.267 54.7402 228.533 68.3402 233.733 90.7402C236.267 101.94 236.4 107.94 236.933 184.474C236.933 184.474 237.467 266.074 237.467 266.074L207.467 266.074L177.333 266.074C177.333 266.074 177.333 189.407 177.333 189.407C177.333 124.607 177.067 111.007 175.2 102.474C170.267 78.6069 158 64.2069 136.933 57.8069C129.333 55.5402 125.333 55.1402 114.533 55.6736C102.667 56.2069 100.267 56.8736 91.4667 61.2736C76.9333 68.3402 68.4 79.2736 63.0667 97.6736C61.0667 104.474 60.8 115.14 60.2667 185.807C60.2667 185.807 59.8667 266.074 59.8667 266.074L29.8667 266.074L0 266.074L0 203.14C0 203.14 0 203.14 0 203.14Z" fill="#FFFFFF" transform="translate(1036.543 357.276)" />
      <path d="M0.400024 130L0.666626 0L30 0L59.3334 0L59.3334 80.4L59.4667 160.667C59.4667 160.667 64.5333 155.067 64.5333 155.067C69.7333 149.2 75.6 141.733 132.4 66.8C151.733 41.4666 171.2 16 175.6 10.4C175.6 10.4 183.733 0 183.733 0L208.8 0L234 0L234 130L234 260L204.667 260L175.333 260L175.067 182L174.667 104C174.667 104 166 114.933 166 114.933C161.333 121.067 142.133 146.133 123.333 170.667C92.8 210.667 80.4 226.8 60.5333 252.267C60.5333 252.267 54.6666 260 54.6666 260L27.3334 260L0 260L0.400024 130L0.400024 130Z" fill="#FFFFFF" transform="translate(1326.543 363.35)" />
      <path d="M105.836 252.16C103.836 247.627 91.1691 218.16 77.7024 186.56C41.7024 102.96 11.0356 30.4271 3.96899 11.8937C2.23572 7.49374 0.502319 2.96042 0.102295 1.89374C-0.697632 0.0270691 2.63562 -0.239594 30.2357 0.160431C30.2357 0.160431 61.3024 0.693756 61.3024 0.693756C61.3024 0.693756 72.769 29.6271 72.769 29.6271C79.1691 45.4937 96.1024 88.2937 110.636 124.56C125.036 160.827 137.036 190.827 137.436 191.094C137.702 191.36 138.369 191.36 138.769 190.827C139.836 189.76 175.302 101.894 175.302 100.294C175.302 99.7604 163.702 99.2271 149.436 99.2271C149.436 99.2271 123.436 99.2271 123.436 99.2271C123.436 99.2271 119.569 88.9604 119.569 88.9604C117.302 83.2271 112.769 71.4937 109.436 62.8271C106.102 54.0271 103.302 46.6938 103.302 46.4271C103.302 46.1604 124.769 45.8937 151.036 45.8937C151.036 45.8937 198.636 45.7604 198.636 45.7604L207.302 23.4937L216.102 1.22708C216.102 1.22708 248.369 0.560425 248.369 0.560425C266.102 0.160431 280.636 0.0270691 280.636 0.293762C280.636 0.560425 276.502 10.1604 271.436 21.6271C266.369 33.0938 252.902 64.4271 241.302 91.2271C222.236 135.627 211.969 159.494 179.302 234.96C179.302 234.96 168.236 260.56 168.236 260.56L138.769 260.56L109.302 260.56L105.836 252.16C105.836 252.16 105.836 252.16 105.836 252.16Z" fill="#FFFFFF" transform="translate(1593.241 362.789)" />
      <path d="M32.2762 534.416C22.1429 513.083 12.9429 485.883 7.3429 460.55C1.07624 431.883 -0.123763 420.15 0.00957031 384.683C0.00957031 349.616 2.27624 329.35 9.20957 299.883C29.0762 215.483 80.1429 138.55 149.343 88.5497C174.543 70.4164 201.21 55.8831 231.21 44.0164C241.876 39.8831 250.81 36.0164 251.21 35.6164C251.61 35.2164 250.943 35.2164 249.61 35.7497C248.41 36.1497 243.61 35.6164 238.943 34.5497C234.41 33.3497 229.076 32.1497 227.21 31.8831C225.343 31.4831 220.81 29.7497 217.076 27.8831C211.61 25.2164 210.276 23.8831 210.543 21.6164C210.676 20.0164 210.943 17.8831 211.076 16.8164C211.076 15.7497 211.61 15.3497 212.01 15.7497C212.543 16.2831 214.543 15.4831 216.41 14.1497C218.276 12.8164 221.743 11.3497 223.876 10.9497C226.143 10.4164 233.343 8.94974 239.876 7.48307C267.343 1.74974 305.076 -0.65026 361.21 0.14974C400.41 0.683073 423.076 1.88307 439.876 4.14974C442.81 4.54974 447.076 5.08307 449.21 5.34974C464.676 7.34974 485.343 12.9497 487.876 15.7497C488.676 16.6831 490.41 18.0164 491.876 18.8164C499.743 23.2164 491.343 29.4831 471.61 34.1497C471.61 34.1497 464.543 35.8831 464.543 35.8831C464.543 35.8831 483.61 42.9497 483.61 42.9497C506.41 51.4831 520.276 58.0164 540.543 69.7497C558.01 79.8831 583.476 98.5497 593.076 108.416C593.076 108.416 599.61 115.216 599.61 115.216C599.61 115.216 588.41 109.35 588.41 109.35C556.276 92.8164 515.21 84.1497 469.21 84.1497C431.343 84.1497 400.143 89.0831 366.01 100.55C282.01 128.683 211.343 190.016 171.61 269.35C148.01 316.416 137.476 361.616 137.343 416.016C137.343 443.216 138.943 460.95 144.01 487.216C145.743 496.416 146.943 504.15 146.543 504.416C146.276 504.816 143.476 505.083 140.276 505.216C137.076 505.35 133.21 506.15 131.61 507.083C130.01 507.883 127.743 508.283 126.41 507.75C124.943 507.216 124.41 507.35 124.943 508.283C125.743 509.616 119.743 512.95 115.21 513.616C114.143 513.75 113.076 514.55 112.81 515.216C112.543 516.016 110.943 516.683 109.21 516.683C107.343 516.683 105.743 517.616 105.343 519.083C104.81 520.416 103.076 521.483 100.943 521.75C98.6762 521.883 95.4762 523.75 92.9429 526.55C90.5429 529.083 88.2762 530.683 87.8762 530.016C87.4762 529.483 88.0096 528.55 88.8096 528.283C90.1429 527.75 90.1429 527.483 88.9429 527.483C88.0096 527.35 86.6762 528.55 85.8762 530.15C84.5429 532.416 84.0096 532.55 82.1429 531.083C80.5429 529.75 80.2762 529.75 81.0762 531.083C81.6096 531.883 81.3429 532.683 80.6762 532.683C79.8762 532.683 79.2096 533.616 79.2096 534.683C79.2096 535.75 78.5429 536.683 77.7429 536.683C76.9429 536.683 76.6762 535.483 77.2096 533.75C78.0096 530.816 77.8762 530.816 75.0762 534.016C73.4762 535.883 71.3429 537.216 70.4096 536.95C69.3429 536.683 68.5429 537.483 68.5429 538.683C68.5429 539.883 67.3429 540.683 65.0762 540.683C63.2096 540.683 62.1429 541.216 62.5429 542.016C62.9429 542.683 62.5429 542.95 61.4762 542.55C60.4096 542.15 59.0762 542.416 58.5429 543.216C58.1429 544.016 56.5429 544.683 55.0762 544.683C53.7429 544.683 52.5429 545.35 52.5429 546.15C52.5429 546.816 52.0096 547.083 51.2096 546.683C50.5429 546.283 49.8762 546.55 49.8762 547.35C49.8762 548.283 48.8096 548.55 47.2096 548.016C45.7429 547.483 44.5429 547.75 44.5429 548.55C44.5429 549.35 43.4762 549.483 42.2762 549.083C40.1429 548.283 40.1429 548.416 41.7429 550.416C42.6762 551.616 42.9429 552.683 42.2762 552.683C41.4762 552.683 37.0762 544.416 32.2762 534.416C32.2762 534.416 32.2762 534.416 32.2762 534.416Z" fill="#FFFFFF" />
      <path d="M88.5629 195.197C88.2963 191.197 87.3629 189.064 84.8296 186.397C83.0963 184.53 82.0296 183.997 82.0296 185.064C82.0296 186.13 80.8296 185.33 79.2296 183.33C77.763 181.464 75.8963 180.13 75.2296 180.664C74.5629 181.064 74.1629 180.797 74.2963 179.997C74.8296 178.13 68.5629 174.53 55.3629 168.664C53.4963 167.864 50.2963 165.597 48.2963 163.73C46.1629 161.73 42.4296 159.73 40.0296 159.33C37.6296 158.797 34.8296 157.597 34.0296 156.53C33.0963 155.33 31.2296 154.797 30.0296 155.197C28.6963 155.597 26.8296 155.197 25.8963 154.13C24.8296 153.197 23.6296 152.264 22.963 152.13C22.4296 152.13 19.0963 151.597 15.6296 151.064C12.1629 150.397 8.96295 150.13 8.42963 150.264C7.76295 150.397 7.36296 149.997 7.36296 149.197C7.36296 147.464 3.76295 147.464 3.09628 149.197C2.82962 149.997 1.89629 149.997 0.82962 149.197C-0.77037 148.264 -0.237045 146.664 4.02962 140.264C20.563 115.197 48.4296 85.0637 72.0296 66.5303C115.63 32.5303 171.496 8.797 224.43 1.997C241.23 -0.13633 253.63 -0.669662 250.03 0.930336C247.763 1.997 247.896 1.33034 246.83 14.1303C246.296 20.5303 246.43 23.997 247.496 24.6637C248.43 25.197 248.696 27.4637 248.163 30.6637C247.63 34.397 247.763 35.8637 248.963 35.8637C250.03 35.8637 250.163 36.2637 249.363 36.9303C247.23 38.397 247.496 42.5303 249.496 42.5303C251.096 42.5303 251.096 43.0637 250.03 45.197C248.696 47.597 248.83 47.7303 252.163 46.5303C254.163 45.7303 255.896 45.3303 256.163 45.597C256.43 45.8637 251.763 48.2637 245.63 51.0637C229.63 58.1303 202.43 74.6637 184.03 88.5303C166.163 101.73 134.163 132.93 120.163 150.53C112.163 160.664 99.7629 178.53 91.6296 191.864C90.0296 194.397 88.6963 195.997 88.5629 195.197C88.5629 195.197 88.5629 195.197 88.5629 195.197Z" fill="#FFFFFF" transform="translate(199.847 91.486)" />
      <path d="M59.3333 192.938C44.1334 190.938 27.7333 182.938 19.3333 173.604C11.4667 164.804 7.86664 154.938 7.73334 141.738C7.73334 128.138 10.5333 119.738 18.2667 111.204C26.2667 102.271 35.7333 98.0045 62.6667 91.3378C88.5333 84.8045 102.667 80.2711 109.867 76.1378C131.333 63.8712 129.333 33.4712 106.4 21.7378C103.467 20.2712 97.0667 18.1378 92.1333 17.0712C66.2667 11.6045 36.9333 19.2045 18.8 36.0045C18.8 36.0045 10.8 43.3378 10.8 43.3378C10.8 43.3378 5.46667 37.6045 5.46667 37.6045C2.53333 34.4045 0 31.2045 0 30.2712C0 26.9378 14.4 15.8712 26 10.4045C42.4 2.67116 55.6 -0.128838 74.6667 0.00449371C105.867 0.137825 128.267 10.8045 138.133 30.1378C142.933 39.3378 144.133 56.9378 140.8 66.6711C134 86.8045 119.867 94.8045 69.6 107.071C45.7333 112.938 35.8666 117.338 30.9333 124.538C21.8666 138.004 24.6667 157.204 37.3333 167.471C54.2667 180.938 91.0667 180.138 114 165.738C117.733 163.471 122.267 160.138 124.267 158.271C128.4 154.404 128.933 154.671 133.867 161.738C137.067 166.271 137.333 167.338 135.733 169.738C133.2 173.871 119.733 182.938 110.667 186.671C96.9333 192.271 74.6667 194.938 59.3333 192.938C59.3333 192.938 59.3333 192.938 59.3333 192.938Z" fill="#FFFFFF" transform="translate(820.543 81.479)" />
      <path d="M76.9333 192.784C56.6666 189.717 42 182.251 27.4667 167.584C15.8667 156.117 8.1333 142.517 3.19995 125.451C-1.06665 110.251 -1.06665 83.5839 3.19995 68.2506C8.26672 50.3839 14.5333 39.1839 25.8667 27.3173C34.4 18.3839 37.8667 15.8506 49.3334 10.1172C96.2667 -12.8161 151.6 4.51725 173.333 49.1839C180.8 64.3839 183.467 77.1839 183.467 97.1839C183.467 114.251 181.333 125.851 176.133 138.117C164.533 165.851 143.333 184.651 116.667 190.784C105.067 193.584 87.4667 194.384 76.9333 192.784C76.9333 192.784 76.9333 192.784 76.9333 192.784ZM115.867 173.584C132.933 167.717 146.667 155.851 155.333 139.584C168.4 115.184 168.267 77.1839 155.2 52.5172C140.133 24.1172 106.133 9.85059 73.6 18.2506C59.8667 21.7173 51.3334 26.5173 41.3334 36.2506C31.7333 45.7172 23.2 61.8506 20.1333 76.2506C12.8 111.317 25.3334 148.117 50.1333 164.651C70 177.984 93.7333 181.184 115.867 173.584C115.867 173.584 115.867 173.584 115.867 173.584Z" fill="#FFFFFF" transform="translate(1201.076 81.099)" />
      <path d="M0.374878 180.4C-0.0251465 176.267 -0.158447 172.4 0.241516 171.733C0.641541 171.2 15.5748 170.667 33.5748 170.667C33.5748 170.667 66.1082 170.667 66.1082 170.667L66.1082 85.3333L66.1082 0L74.7749 0L83.4415 0L83.4415 85.0667L83.4415 170.267C83.4415 170.267 99.7083 171.067 99.7083 171.067C108.508 171.6 123.308 172 132.375 172C132.375 172 148.775 172 148.775 172L148.775 180L148.775 188L74.9082 188L1.17487 188L0.374878 180.4C0.374878 180.4 0.374878 180.4 0.374878 180.4Z" fill="#FFFFFF" transform="translate(1009.101 84.683)" />
      <path d="M0 95.1595L0 1.15957L8.53333 1.15957L16.9333 1.15957C16.9333 1.15957 17.7334 12.2262 17.7334 12.2262C18.2667 18.2262 18.6666 35.1596 18.6666 49.9596C18.6666 49.9596 18.6666 76.7596 18.6666 76.7596L47.0667 76.2262L75.3334 75.8262L100.8 38.2262L126.4 0.492905C126.4 0.492905 137.333 0.0929031 137.333 0.0929031C146 -0.173759 148 0.0929031 147.2 1.42624C146.667 2.35957 135.2 19.4262 121.733 39.2929C108.4 59.2929 97.0668 76.3596 96.6667 77.5595C96.0001 78.8929 97.2001 79.6929 101.067 80.0929C108.933 81.1595 120.8 87.5596 128 94.7596C144.4 110.893 148.133 136.893 137.333 159.293C130.133 173.96 114.533 184.76 96.0001 187.693C91.2001 188.493 67.7334 189.16 43.7334 189.16C43.7334 189.16 0 189.16 0 189.16L0 95.1595L0 95.1595ZM98.4 169.826C108.533 166.76 116 160.493 120.667 151.16C124.133 144.226 124.667 141.693 124.667 132.493C124.667 118.626 120.133 108.626 110.8 101.693C99.8667 93.5596 95.4668 92.8929 55.0668 92.0929C55.0668 92.0929 18.6666 91.5596 18.6666 91.5596L18.6666 131.693L18.6666 171.826C18.6666 171.826 55.0668 171.826 55.0668 171.826C83.8667 171.826 92.9333 171.426 98.4 169.826C98.4 169.826 98.4 169.826 98.4 169.826Z" fill="#FFFFFF" transform="translate(1455.21 83.524)" />
      <path d="M0 94.4L0 0L67.3334 0L134.667 0L134.667 8.4L134.667 16.9333L76.4 16.4L18 16L18 51.3333L18 86.6666L71.7333 87.0667L125.333 87.3333L125.333 95.3333L125.333 103.333L71.3334 103.333L17.3334 103.333L17.3334 137.333L17.3334 171.333L75.3334 171.333L133.333 171.333L133.333 180L133.333 188.667L66.6666 188.667L0 188.667L0 94.4L0 94.4Z" fill="#FFFFFF" transform="translate(1668.543 84.016)" />
    </g>
  </g>
</svg>